<?xml version="1.0" encoding="utf-8"?>
<!-- Generator: Adobe Illustrator 24.1.0, SVG Export Plug-In . SVG Version: 6.00 Build 0)  -->
<svg version="1.1" id="Layer_1" xmlns="http://www.w3.org/2000/svg" xmlns:xlink="http://www.w3.org/1999/xlink" x="0px" y="0px"
	 viewBox="0 0 24 24" style="enable-background:new 0 0 24 24;" xml:space="preserve">
<style type="text/css">
	.st0{fill:#D4D4D4;}
</style>
<g>
	<g>
		<g>
			<path class="st0" d="M6.5,11.5C5.1,11.5,4,10.4,4,9s1.1-2.5,2.5-2.5S9,7.6,9,9S7.9,11.5,6.5,11.5z M6.5,7.5C5.7,7.5,5,8.2,5,9
				s0.7,1.5,1.5,1.5S8,9.8,8,9S7.3,7.5,6.5,7.5z"/>
			<path class="st0" d="M10.5,15.5h-8C2.2,15.5,2,15.3,2,15c0-2.5,2-4.5,4.5-4.5s4.5,2,4.5,4.5C11,15.3,10.8,15.5,10.5,15.5z
				 M3,14.5H10c-0.2-1.7-1.7-3-3.5-3S3.3,12.8,3,14.5z"/>
		</g>
		<path class="st0" d="M21.5,8.5h-8C13.2,8.5,13,8.3,13,8s0.2-0.5,0.5-0.5h8C21.8,7.5,22,7.7,22,8S21.8,8.5,21.5,8.5z"/>
		<path class="st0" d="M18.5,11.5h-5c-0.3,0-0.5-0.2-0.5-0.5s0.2-0.5,0.5-0.5h5c0.3,0,0.5,0.2,0.5,0.5S18.8,11.5,18.5,11.5z"/>
		<path class="st0" d="M21.5,14.5h-8c-0.3,0-0.5-0.2-0.5-0.5s0.2-0.5,0.5-0.5h8c0.3,0,0.5,0.2,0.5,0.5S21.8,14.5,21.5,14.5z"/>
	</g>
	<path class="st0" d="M23.5,19.5h-3c-0.3,0-0.5-0.2-0.5-0.5c0-0.1,0-0.1-0.1-0.2c-0.1-0.2-0.1-0.4,0-0.5C20,18.1,20,18.1,20,18
		c0-0.3-0.2-0.5-0.5-0.5S19,17.7,19,18c0,0.1,0,0.1,0.1,0.2c0.1,0.2,0.1,0.4,0,0.5C19,18.9,19,18.9,19,19c0,0.3-0.2,0.5-0.5,0.5h-3
		c-0.3,0-0.5-0.2-0.5-0.5c0-0.1,0-0.1-0.1-0.2c-0.1-0.2-0.1-0.4,0-0.5C15,18.1,15,18.1,15,18c0-0.3-0.2-0.5-0.5-0.5S14,17.7,14,18
		c0,0.1,0,0.1,0.1,0.2c0.1,0.2,0.1,0.4,0,0.5C14,18.9,14,18.9,14,19c0,0.3-0.2,0.5-0.5,0.5h-3c-0.3,0-0.5-0.2-0.5-0.5
		c0-0.1,0-0.1-0.1-0.2c-0.1-0.2-0.1-0.4,0-0.5C10,18.1,10,18.1,10,18c0-0.3-0.2-0.5-0.5-0.5S9,17.7,9,18c0,0.1,0,0.1,0.1,0.2
		c0.1,0.2,0.1,0.4,0,0.5C9,18.9,9,18.9,9,19c0,0.3-0.2,0.5-0.5,0.5h-3C5.2,19.5,5,19.3,5,19c0-0.1,0-0.1-0.1-0.2
		c-0.1-0.2-0.1-0.4,0-0.5C5,18.1,5,18.1,5,18c0-0.3-0.2-0.5-0.5-0.5S4,17.7,4,18c0,0.1,0,0.1,0.1,0.2c0.1,0.2,0.1,0.4,0,0.5
		C4,18.9,4,18.9,4,19c0,0.3-0.2,0.5-0.5,0.5h-3C0.2,19.5,0,19.3,0,19V5c0-0.3,0.2-0.5,0.5-0.5h23C23.8,4.5,24,4.7,24,5v14
		C24,19.3,23.8,19.5,23.5,19.5z M20.9,18.5H23v-13H1v13h2.1C3,18.3,3,18.2,3,18c0-0.8,0.7-1.5,1.5-1.5S6,17.2,6,18
		c0,0.2,0,0.3-0.1,0.5h2.2C8,18.3,8,18.2,8,18c0-0.8,0.7-1.5,1.5-1.5S11,17.2,11,18c0,0.2,0,0.3-0.1,0.5h2.2C13,18.3,13,18.2,13,18
		c0-0.8,0.7-1.5,1.5-1.5S16,17.2,16,18c0,0.2,0,0.3-0.1,0.5h2.2C18,18.3,18,18.2,18,18c0-0.8,0.7-1.5,1.5-1.5S21,17.2,21,18
		C21,18.2,21,18.3,20.9,18.5L20.9,18.5z"/>
</g>
</svg>
