<?xml version="1.0" encoding="utf-8"?>
<!-- Generator: Adobe Illustrator 24.1.0, SVG Export Plug-In . SVG Version: 6.00 Build 0)  -->
<svg version="1.1" id="Icons" xmlns="http://www.w3.org/2000/svg" xmlns:xlink="http://www.w3.org/1999/xlink" x="0px" y="0px"
	 viewBox="0 0 32 32" style="enable-background:new 0 0 32 32;" xml:space="preserve">
<style type="text/css">
	.st0{fill:#664A42;}
	.st1{fill:#FFF200;stroke:#EE4925;stroke-miterlimit:10;}
</style>
<path class="st0" d="M1.4,27.8c-0.4,0.6-0.5,1.4-0.3,2l0,0.1c0.3,1.2,1.4,2,2.6,2c0.2,0,0.5,0,0.7-0.1l11.5-3l11.5,3
	C27.8,32,28,32,28.2,32c1.2,0,2.3-0.8,2.6-2l0-0.1c0.2-0.7,0.1-1.4-0.3-2c-0.4-0.6-1-1.1-1.7-1.3L26.9,26l2.1-0.5
	c0.7-0.2,1.3-0.6,1.7-1.3c0.4-0.6,0.5-1.4,0.3-2l0-0.1c-0.4-1.4-1.9-2.3-3.3-1.9l-11.5,3l-11.5-3c-1.5-0.4-3,0.5-3.3,1.9l0,0.1
	c-0.2,0.7-0.1,1.4,0.3,2c0.4,0.6,1,1.1,1.7,1.3L5.1,26L3,26.5C2.3,26.7,1.7,27.2,1.4,27.8z M28.5,28.5c0.2,0.1,0.4,0.2,0.4,0.3
	C29,29,29,29.2,29,29.3l0,0.1c-0.1,0.4-0.5,0.6-0.9,0.5l-8.1-2.1l3-0.8L28.5,28.5z M3.5,23.5c-0.2-0.1-0.4-0.2-0.4-0.3
	C3,23,3,22.8,3,22.7l0-0.1C3.2,22.1,3.6,21.9,4,22l8.1,2.1L9,25L3.5,23.5z M3.5,28.5L28,22c0.1,0,0.1,0,0.2,0c0.3,0,0.6,0.2,0.7,0.5
	l0,0.1c0,0.2,0,0.4-0.1,0.5c-0.1,0.2-0.3,0.3-0.4,0.3L4,30c-0.4,0.1-0.8-0.1-0.9-0.5l0-0.1c0-0.2,0-0.4,0.1-0.5
	C3.2,28.7,3.3,28.5,3.5,28.5z"/>
<path class="st1" d="M11.8,21.3c1.2,0.4,2.5,0.7,3.8,0.7c1.8,0,3.5-0.4,4.8-1.2c2.5-1.5,4.2-4.5,4.5-8.1c0.2-2.7-0.4-5.4-1.8-7.4
	c-1.1-1.6-2.9-2.9-5.5-4.1c-0.1-0.1-0.3-0.1-0.4-0.2c-1-0.5-2.4-1.1-3.4-1c-0.3,0-0.5,0.2-0.7,0.4c-0.2,0.2-0.2,0.5-0.2,0.7
	c0.1,0.6,0.6,0.9,1,1.2c0.1,0.1,0.2,0.1,0.2,0.2c1.3,1.4,1,3.3,0.1,4.5c-0.7,0.9-1.8,1.6-2.9,2.3l-0.6,0.3c-2.8,1.8-4.1,4.1-3.6,6.4
	C7.5,18.4,9.3,20.5,11.8,21.3z M15.6,20c-1.1,0-2.2-0.2-3.1-0.5c-0.3-0.1-0.6-0.2-0.8-0.4c0.2-2.7,2.3-5.2,4.6-6.4
	c0,0.1,0,0.1,0,0.2c0.1,0.7,0.2,1.6,0.5,2.2c0.1,0.2,0.4,0.4,0.6,0.3c0.4-0.1,0.8-0.4,1.1-0.7c0.1,0,0.1-0.1,0.2-0.1
	c0.2,0.5,0.5,1.2,0.6,1.4c0.4,1,0.5,2,0.5,3c-0.1,0.1-0.2,0.1-0.3,0.2C18.4,19.7,17,20,15.6,20z M11.8,11.4l0.5-0.3
	c1.2-0.8,2.5-1.6,3.4-2.8C17,6.6,17.3,4.7,16.7,3c0,0,0.1,0,0.1,0.1c2.3,1,3.8,2.1,4.7,3.4c1.1,1.6,1.7,3.9,1.5,6.1
	c-0.1,0.9-0.5,3.6-2.2,5.5c-0.1-0.8-0.2-1.7-0.5-2.5c-0.8-2.1-1.1-2.2-1.2-2.3c-0.1-0.1-0.3,0-0.4,0c-0.2,0.1-0.4,0.3-0.7,0.5
	c-0.1,0.1-0.2,0.2-0.4,0.3c-0.1-0.4-0.2-0.9-0.2-1.4c0-0.3-0.1-0.6-0.1-0.9c0-0.2-0.1-0.3-0.3-0.4c-0.1-0.1-0.3-0.1-0.4,0
	c-2.6,1.2-5.3,3.9-5.7,7c-0.9-0.7-1.5-1.7-1.7-2.6C8.7,13.7,10.6,12.2,11.8,11.4z"/>
</svg>
