<?xml version="1.0" encoding="utf-8"?>
<!-- Generator: Adobe Illustrator 24.1.0, SVG Export Plug-In . SVG Version: 6.00 Build 0)  -->
<svg version="1.1" id="Layer_1" xmlns="http://www.w3.org/2000/svg" xmlns:xlink="http://www.w3.org/1999/xlink" x="0px" y="0px"
	 viewBox="0 0 24 24" style="enable-background:new 0 0 24 24;" xml:space="preserve">
<style type="text/css">
	.st0{fill-rule:evenodd;clip-rule:evenodd;fill:#016FFF;}
</style>
<path class="st0" d="M19,3H5C3.9,3,3,3.9,3,5v14c0,1.1,0.9,2,2,2h14c1.1,0,2-0.9,2-2V5C21,3.9,20.1,3,19,3z M8.5,17.5
	C8.5,17.8,8.3,18,8,18H6.5C6.2,18,6,17.8,6,17.5v-7C6,10.2,6.2,10,6.5,10H8c0.3,0,0.5,0.2,0.5,0.5V17.5z M7.2,9
	C6.4,9,5.8,8.3,5.8,7.5S6.4,6,7.2,6s1.5,0.7,1.5,1.5S8.1,9,7.2,9z M18,17.5c0,0.3-0.2,0.5-0.5,0.5H16c-0.3,0-0.5-0.2-0.5-0.5v-3.8
	c0-0.8-0.7-1.5-1.5-1.5s-1.5,0.7-1.5,1.5v3.8c0,0.3-0.2,0.5-0.5,0.5h-1.5c-0.3,0-0.5-0.2-0.5-0.5v-7c0-0.3,0.2-0.5,0.5-0.5H12
	c0.3,0,0.5,0.2,0.5,0.5v0.6c0.6-0.9,1.7-1.4,2.8-1.3c1.6,0.2,2.8,1.6,2.7,3.1V17.5z"/>
</svg>
